<svg width="62" height="62" viewBox="0 0 62 62" fill="none" xmlns="http://www.w3.org/2000/svg">
<path d="M60.6773 56.3728L49.3199 45.0987C53.7285 39.5976 55.8634 32.6153 55.2858 25.5873C54.7081 18.5594 51.4618 12.02 46.2143 7.31382C40.9667 2.60766 34.1169 0.0924338 27.0731 0.285321C20.0294 0.478209 13.3273 3.36455 8.34475 8.35085C3.36224 13.3372 0.478085 20.0444 0.285344 27.0935C0.0926029 34.1425 2.60592 40.9976 7.30851 46.2491C12.0111 51.5006 18.5455 54.7495 25.5681 55.3276C32.5908 55.9056 39.5678 53.7691 45.0647 49.3571L56.3303 60.6313C56.6149 60.9184 56.9534 61.1463 57.3265 61.3019C57.6995 61.4574 58.0997 61.5375 58.5038 61.5375C58.9079 61.5375 59.3081 61.4574 59.6811 61.3019C60.0542 61.1463 60.3927 60.9184 60.6773 60.6313C61.2291 60.06 61.5375 59.2966 61.5375 58.5021C61.5375 57.7075 61.2291 56.9441 60.6773 56.3728ZM27.8908 49.3571C23.6525 49.3571 19.5094 48.0994 15.9854 45.7429C12.4614 43.3865 9.71473 40.0371 8.09281 36.1185C6.47089 32.1999 6.04652 27.8879 6.87337 23.7279C7.70022 19.5679 9.74115 15.7467 12.7381 12.7475C15.735 9.74831 19.5533 7.70583 23.7101 6.87835C27.867 6.05088 32.1757 6.47557 36.0913 8.09872C40.007 9.72187 43.3538 12.4706 45.7084 15.9973C48.0631 19.5239 49.3199 23.6702 49.3199 27.9117C49.3199 33.5994 47.0622 39.0541 43.0434 43.0759C39.0247 47.0977 33.5741 49.3571 27.8908 49.3571Z" fill="white"/>
</svg>
